<svg width="40" height="40" viewBox="0 0 40 40" fill="none" xmlns="http://www.w3.org/2000/svg">
<rect width="40" height="40" rx="20" fill="#FA0000"/>
<mask id="mask0_2483_3472" style="mask-type:alpha" maskUnits="userSpaceOnUse" x="8" y="8" width="24" height="24">
<rect x="8" y="8" width="24" height="24" fill="white"/>
</mask>
<g mask="url(#mask0_2483_3472)">
<path d="M20 30C18.6167 30 17.3167 29.7375 16.1 29.2125C14.8833 28.6875 13.825 27.975 12.925 27.075C12.025 26.175 11.3125 25.1167 10.7875 23.9C10.2625 22.6833 10 21.3833 10 20C10 18.6167 10.2625 17.3167 10.7875 16.1C11.3125 14.8833 12.025 13.825 12.925 12.925C13.825 12.025 14.8833 11.3125 16.1 10.7875C17.3167 10.2625 18.6167 10 20 10C21.3833 10 22.6833 10.2625 23.9 10.7875C25.1167 11.3125 26.175 12.025 27.075 12.925C27.975 13.825 28.6875 14.8833 29.2125 16.1C29.7375 17.3167 30 18.6167 30 20V21.45C30 22.4333 29.6625 23.2708 28.9875 23.9625C28.3125 24.6542 27.4833 25 26.5 25C25.9167 25 25.3667 24.875 24.85 24.625C24.3333 24.375 23.9 24.0167 23.55 23.55C23.0667 24.0333 22.5208 24.3958 21.9125 24.6375C21.3042 24.8792 20.6667 25 20 25C18.6167 25 17.4375 24.5125 16.4625 23.5375C15.4875 22.5625 15 21.3833 15 20C15 18.6167 15.4875 17.4375 16.4625 16.4625C17.4375 15.4875 18.6167 15 20 15C21.3833 15 22.5625 15.4875 23.5375 16.4625C24.5125 17.4375 25 18.6167 25 20V21.45C25 21.8833 25.1417 22.25 25.425 22.55C25.7083 22.85 26.0667 23 26.5 23C26.9333 23 27.2917 22.85 27.575 22.55C27.8583 22.25 28 21.8833 28 21.45V20C28 17.7667 27.225 15.875 25.675 14.325C24.125 12.775 22.2333 12 20 12C17.7667 12 15.875 12.775 14.325 14.325C12.775 15.875 12 17.7667 12 20C12 22.2333 12.775 24.125 14.325 25.675C15.875 27.225 17.7667 28 20 28H25V30H20ZM20 23C20.8333 23 21.5417 22.7083 22.125 22.125C22.7083 21.5417 23 20.8333 23 20C23 19.1667 22.7083 18.4583 22.125 17.875C21.5417 17.2917 20.8333 17 20 17C19.1667 17 18.4583 17.2917 17.875 17.875C17.2917 18.4583 17 19.1667 17 20C17 20.8333 17.2917 21.5417 17.875 22.125C18.4583 22.7083 19.1667 23 20 23Z" fill="white"/>
</g>
</svg>
